<?xml version="1.0" encoding="UTF-8" standalone="no"?><!DOCTYPE svg PUBLIC "-//W3C//DTD SVG 1.1//EN" "http://www.w3.org/Graphics/SVG/1.1/DTD/svg11.dtd"><!-- Generated by graphviz version 2.40.1 (20161225.0304)
 --><!-- Title: G Pages: 1 --><svg xmlns="http://www.w3.org/2000/svg" xmlns:xlink="http://www.w3.org/1999/xlink" width="1385pt" height="1623pt" viewBox="0.00 0.00 1385.39 1622.92">
<g id="graph0" class="graph" transform="scale(1 1) rotate(0) translate(4 1618.9232)">
<title>G</title>
<polygon fill="#ffffff" stroke="transparent" points="-4,4 -4,-1618.9232 1381.3946,-1618.9232 1381.3946,4 -4,4"/>
<!-- shutdown -->
<g id="node1" class="node">
<title>shutdown</title>
<ellipse fill="none" stroke="#000000" cx="1061" cy="-1573.4876" rx="37.3773" ry="37.3773"/>
<ellipse fill="none" stroke="#000000" cx="1061" cy="-1573.4876" rx="41.3711" ry="41.3711"/>
<text text-anchor="middle" x="1061" y="-1577.6876" font-family="Times,serif" font-size="14.00" fill="#000000">ВР</text>
<text text-anchor="middle" x="1061" y="-1560.8876" font-family="Times,serif" font-size="14.00" fill="#000000">r/0 y/0</text>
</g>
<!-- shutdown&#45;&gt;shutdown -->
<g id="edge2" class="edge">
<title>shutdown-&gt;shutdown</title>
<path fill="none" stroke="#000000" d="M1100.7198,-1585.8015C1111.8736,-1585.2622 1120.4355,-1581.1576 1120.4355,-1573.4876 1120.4355,-1568.3344 1116.5705,-1564.7906 1110.6512,-1562.8563"/>
<polygon fill="#000000" stroke="#000000" points="1111.1639,-1559.3933 1100.7198,-1561.1738 1109.9947,-1566.295 1111.1639,-1559.3933"/>
<text text-anchor="middle" x="1129.1855" y="-1569.2876" font-family="Times,serif" font-size="14.00" fill="#000000"> b̅</text>
</g>
<!-- shutdown1 -->
<g id="node2" class="node">
<title>shutdown1</title>
<ellipse fill="none" stroke="#000000" cx="320" cy="-1441.8166" rx="37.3711" ry="37.3711"/>
<text text-anchor="middle" x="320" y="-1446.0166" font-family="Times,serif" font-size="14.00" fill="#000000">ВР</text>
<text text-anchor="middle" x="320" y="-1429.2166" font-family="Times,serif" font-size="14.00" fill="#000000">r/0 y/0</text>
</g>
<!-- shutdown&#45;&gt;shutdown1 -->
<g id="edge1" class="edge">
<title>shutdown-&gt;shutdown1</title>
<path fill="none" stroke="#000000" d="M1019.0965,-1572.2019C876.511,-1567.518 415.9087,-1549.7414 360.5,-1514.0521 350.207,-1507.4223 342.2805,-1497.2104 336.2849,-1486.5329"/>
<polygon fill="#000000" stroke="#000000" points="339.3522,-1484.8434 331.6932,-1477.5228 333.1154,-1488.0218 339.3522,-1484.8434"/>
<text text-anchor="middle" x="365.25" y="-1501.4521" font-family="Times,serif" font-size="14.00" fill="#000000"> b</text>
</g>
<!-- broken -->
<g id="node3" class="node">
<title>broken</title>
<ellipse fill="none" stroke="#ff0000" stroke-width="2" cx="258" cy="-803.4616" rx="37.3711" ry="37.3711"/>
<text text-anchor="middle" x="258" y="-807.6616" font-family="Times,serif" font-size="14.00" fill="#000000">СР</text>
<text text-anchor="middle" x="258" y="-790.8616" font-family="Times,serif" font-size="14.00" fill="#000000">r/3 y/0</text>
</g>
<!-- shutdown1&#45;&gt;broken -->
<g id="edge3" class="edge">
<title>shutdown1-&gt;broken</title>
<path fill="none" stroke="#000000" d="M327.9475,-1405.1358C332.7694,-1379.7224 338,-1345.036 338,-1314.1456 338,-1314.1456 338,-1314.1456 338,-931.1326 338,-898.4305 340.5829,-887.0827 324,-858.8971 317.4737,-847.8044 307.8829,-837.908 298.0234,-829.6562"/>
<polygon fill="#000000" stroke="#000000" points="300.1269,-826.8575 290.1122,-823.3996 295.7847,-832.348 300.1269,-826.8575"/>
<text text-anchor="middle" x="354.1973" y="-1118.4391" font-family="Times,serif" font-size="14.00" fill="#000000"> x &gt; 1</text>
</g>
<!-- rr -->
<g id="node4" class="node">
<title>rr</title>
<ellipse fill="none" stroke="#000000" cx="87" cy="-1314.1456" rx="37.3711" ry="37.3711"/>
<text text-anchor="middle" x="87" y="-1318.3456" font-family="Times,serif" font-size="14.00" fill="#000000">РР</text>
<text text-anchor="middle" x="87" y="-1301.5456" font-family="Times,serif" font-size="14.00" fill="#000000">r/1 y/0</text>
</g>
<!-- shutdown1&#45;&gt;rr -->
<g id="edge4" class="edge">
<title>shutdown1-&gt;rr</title>
<path fill="none" stroke="#000000" d="M287.111,-1423.7953C245.6838,-1401.0955 174.4438,-1362.0599 129.086,-1337.2064"/>
<polygon fill="#000000" stroke="#000000" points="130.5498,-1334.0175 120.0981,-1332.2816 127.186,-1340.1564 130.5498,-1334.0175"/>
<text text-anchor="middle" x="233.9183" y="-1373.7811" font-family="Times,serif" font-size="14.00" fill="#000000"> x ≤ 1</text>
</g>
<!-- rr1 -->
<g id="node5" class="node">
<title>rr1</title>
<ellipse fill="none" stroke="#000000" cx="87" cy="-1186.4746" rx="37.3711" ry="37.3711"/>
<text text-anchor="middle" x="87" y="-1190.6746" font-family="Times,serif" font-size="14.00" fill="#000000">РР</text>
<text text-anchor="middle" x="87" y="-1173.8746" font-family="Times,serif" font-size="14.00" fill="#000000">r/1 y/1</text>
</g>
<!-- rr&#45;&gt;rr1 -->
<g id="edge5" class="edge">
<title>rr-&gt;rr1</title>
<path fill="none" stroke="#000000" d="M87,-1276.5306C87,-1263.4012 87,-1248.4806 87,-1234.6136"/>
<polygon fill="#000000" stroke="#000000" points="90.5001,-1234.2619 87,-1224.2619 83.5001,-1234.262 90.5001,-1234.2619"/>
<text text-anchor="middle" x="92.25" y="-1246.1101" font-family="Times,serif" font-size="14.00" fill="#000000"> b</text>
</g>
<!-- rr0 -->
<g id="node6" class="node">
<title>rr0</title>
<ellipse fill="none" stroke="#000000" cx="67" cy="-803.4616" rx="37.3711" ry="37.3711"/>
<text text-anchor="middle" x="67" y="-807.6616" font-family="Times,serif" font-size="14.00" fill="#000000">РР</text>
<text text-anchor="middle" x="67" y="-790.8616" font-family="Times,serif" font-size="14.00" fill="#000000">r/1 y/0</text>
</g>
<!-- rr&#45;&gt;rr0 -->
<g id="edge6" class="edge">
<title>rr-&gt;rr0</title>
<path fill="none" stroke="#000000" d="M57.5458,-1290.076C32.3064,-1266.5732 0,-1228.3172 0,-1186.4746 0,-1186.4746 0,-1186.4746 0,-931.1326 0,-897.5449 18.4064,-864.0924 35.9241,-839.8607"/>
<polygon fill="#000000" stroke="#000000" points="38.8526,-841.7894 42.0517,-831.6891 33.2522,-837.5899 38.8526,-841.7894"/>
<text text-anchor="middle" x="8.75" y="-1054.6036" font-family="Times,serif" font-size="14.00" fill="#000000"> b̅</text>
</g>
<!-- rr1&#45;&gt;rr0 -->
<g id="edge7" class="edge">
<title>rr1-&gt;rr0</title>
<path fill="none" stroke="#000000" d="M77.5506,-1150.1577C75.9756,-1143.7988 74.4004,-1137.2357 73,-1131.0391 58.6275,-1067.441 44.0428,-1051.6782 47.5,-986.5681 49.9558,-940.3168 55.8775,-887.7704 60.5555,-850.8674"/>
<polygon fill="#000000" stroke="#000000" points="64.0342,-851.2567 61.8381,-840.892 57.0913,-850.364 64.0342,-851.2567"/>
<text text-anchor="middle" x="56.75" y="-990.7681" font-family="Times,serif" font-size="14.00" fill="#000000"> b̅</text>
</g>
<!-- rr11 -->
<g id="node7" class="node">
<title>rr11</title>
<ellipse fill="none" stroke="#000000" cx="152" cy="-1058.8036" rx="37.3711" ry="37.3711"/>
<text text-anchor="middle" x="152" y="-1063.0036" font-family="Times,serif" font-size="14.00" fill="#000000">РР</text>
<text text-anchor="middle" x="152" y="-1046.2036" font-family="Times,serif" font-size="14.00" fill="#000000">r/1 y/2</text>
</g>
<!-- rr1&#45;&gt;rr11 -->
<g id="edge9" class="edge">
<title>rr1-&gt;rr11</title>
<path fill="none" stroke="#000000" d="M104.078,-1152.9306C112.0757,-1137.2218 121.6954,-1118.327 130.2106,-1101.6016"/>
<polygon fill="#000000" stroke="#000000" points="133.3923,-1103.0664 134.8104,-1092.5669 127.1543,-1099.8904 133.3923,-1103.0664"/>
<text text-anchor="middle" x="129.25" y="-1118.4391" font-family="Times,serif" font-size="14.00" fill="#000000"> b</text>
</g>
<!-- rr0&#45;&gt;rr1 -->
<g id="edge8" class="edge">
<title>rr0-&gt;rr1</title>
<path fill="none" stroke="#000000" d="M71.3675,-840.705C71.9829,-846.779 72.556,-853.0087 73,-858.8971 80.4805,-958.1001 84.2722,-1074.5277 85.9253,-1138.4255"/>
<polygon fill="#000000" stroke="#000000" points="82.4307,-1138.6881 86.1818,-1148.5967 89.4285,-1138.5116 82.4307,-1138.6881"/>
<text text-anchor="middle" x="87.25" y="-990.7681" font-family="Times,serif" font-size="14.00" fill="#000000"> b</text>
</g>
<!-- rr0&#45;&gt;rr0 -->
<g id="edge10" class="edge">
<title>rr0-&gt;rr0</title>
<path fill="none" stroke="#000000" d="M102.7229,-815.0752C113.7647,-814.8406 122.4355,-810.9694 122.4355,-803.4616 122.4355,-798.5346 118.7013,-795.1737 113.0134,-793.379"/>
<polygon fill="#000000" stroke="#000000" points="113.1292,-789.8578 102.7229,-791.8479 112.0989,-796.7816 113.1292,-789.8578"/>
<text text-anchor="middle" x="131.1855" y="-799.2616" font-family="Times,serif" font-size="14.00" fill="#000000"> b̅</text>
</g>
<!-- rr111 -->
<g id="node8" class="node">
<title>rr111</title>
<ellipse fill="none" stroke="#000000" cx="245" cy="-931.1326" rx="37.3711" ry="37.3711"/>
<text text-anchor="middle" x="245" y="-935.3326" font-family="Times,serif" font-size="14.00" fill="#000000">РР</text>
<text text-anchor="middle" x="245" y="-918.5326" font-family="Times,serif" font-size="14.00" fill="#000000">r/1 y/3</text>
</g>
<!-- rr11&#45;&gt;rr111 -->
<g id="edge11" class="edge">
<title>rr11-&gt;rr111</title>
<path fill="none" stroke="#000000" d="M174.2758,-1028.2232C187.0442,-1010.6947 203.1934,-988.525 216.8355,-969.797"/>
<polygon fill="#000000" stroke="#000000" points="219.8471,-971.6071 222.9059,-961.4634 214.189,-967.4856 219.8471,-971.6071"/>
<text text-anchor="middle" x="209.25" y="-990.7681" font-family="Times,serif" font-size="14.00" fill="#000000"> b</text>
</g>
<!-- rr110 -->
<g id="node9" class="node">
<title>rr110</title>
<ellipse fill="none" stroke="#000000" cx="152" cy="-931.1326" rx="37.3711" ry="37.3711"/>
<text text-anchor="middle" x="152" y="-935.3326" font-family="Times,serif" font-size="14.00" fill="#000000">РР</text>
<text text-anchor="middle" x="152" y="-918.5326" font-family="Times,serif" font-size="14.00" fill="#000000">r/1 y/3</text>
</g>
<!-- rr11&#45;&gt;rr110 -->
<g id="edge12" class="edge">
<title>rr11-&gt;rr110</title>
<path fill="none" stroke="#000000" d="M152,-1021.1886C152,-1008.0592 152,-993.1386 152,-979.2716"/>
<polygon fill="#000000" stroke="#000000" points="155.5001,-978.9199 152,-968.9199 148.5001,-978.9199 155.5001,-978.9199"/>
<text text-anchor="middle" x="160.75" y="-990.7681" font-family="Times,serif" font-size="14.00" fill="#000000"> b̅</text>
</g>
<!-- rr111&#45;&gt;rr111 -->
<g id="edge13" class="edge">
<title>rr111-&gt;rr111</title>
<path fill="none" stroke="#000000" d="M280.7229,-942.7462C291.7647,-942.5116 300.4355,-938.6404 300.4355,-931.1326 300.4355,-926.2056 296.7013,-922.8447 291.0134,-921.05"/>
<polygon fill="#000000" stroke="#000000" points="291.1292,-917.5288 280.7229,-919.5189 290.0989,-924.4526 291.1292,-917.5288"/>
<text text-anchor="middle" x="305.6855" y="-926.9326" font-family="Times,serif" font-size="14.00" fill="#000000"> b</text>
</g>
<!-- out_h0_0 -->
<g id="node10" class="node">
<title>out_h0_0</title>
<ellipse fill="none" stroke="#000000" cx="808" cy="-803.4616" rx="37.3711" ry="37.3711"/>
<text text-anchor="middle" x="808" y="-807.6616" font-family="Times,serif" font-size="14.00" fill="#000000">РВ</text>
<text text-anchor="middle" x="808" y="-790.8616" font-family="Times,serif" font-size="14.00" fill="#000000">r/2 y/0</text>
</g>
<!-- rr111&#45;&gt;out_h0_0 -->
<g id="edge14" class="edge">
<title>rr111-&gt;out_h0_0</title>
<path fill="none" stroke="#000000" d="M281.94,-922.7557C380.8828,-900.3186 651.7768,-838.8882 761.2151,-814.0709"/>
<polygon fill="#000000" stroke="#000000" points="762.3124,-817.4111 771.2907,-811.7861 760.7643,-810.5844 762.3124,-817.4111"/>
<text text-anchor="middle" x="568.75" y="-863.0971" font-family="Times,serif" font-size="14.00" fill="#000000"> b̅</text>
</g>
<!-- rr110&#45;&gt;broken -->
<g id="edge16" class="edge">
<title>rr110-&gt;broken</title>
<path fill="none" stroke="#000000" d="M176.053,-902.1621C191.2999,-883.7981 211.1572,-859.8811 227.5058,-840.1901"/>
<polygon fill="#000000" stroke="#000000" points="230.3471,-842.2471 234.0421,-832.3175 224.9614,-837.7755 230.3471,-842.2471"/>
<text text-anchor="middle" x="216.25" y="-863.0971" font-family="Times,serif" font-size="14.00" fill="#000000"> b</text>
</g>
<!-- rr110&#45;&gt;rr0 -->
<g id="edge15" class="edge">
<title>rr110-&gt;rr0</title>
<path fill="none" stroke="#000000" d="M131.2067,-899.9007C119.8871,-882.8986 105.7593,-861.6785 93.6402,-843.4755"/>
<polygon fill="#000000" stroke="#000000" points="96.3285,-841.1978 87.8733,-834.8135 90.5018,-845.0771 96.3285,-841.1978"/>
<text text-anchor="middle" x="123.75" y="-863.0971" font-family="Times,serif" font-size="14.00" fill="#000000"> b̅</text>
</g>
<!-- out_h0_0&#45;&gt;shutdown -->
<g id="edge22" class="edge">
<title>out_h0_0-&gt;shutdown</title>
<path fill="none" stroke="#000000" d="M836.908,-828.1947C861.2062,-851.8791 892,-890.0074 892,-931.1326 892,-1441.8166 892,-1441.8166 892,-1441.8166 892,-1502.8384 961.4105,-1539.7253 1011.2655,-1558.3494"/>
<polygon fill="#000000" stroke="#000000" points="1010.3549,-1561.7414 1020.9494,-1561.8325 1012.7241,-1555.1545 1010.3549,-1561.7414"/>
<text text-anchor="middle" x="908.1973" y="-1182.2746" font-family="Times,serif" font-size="14.00" fill="#000000"> x = 4</text>
</g>
<!-- out_h0_0&#45;&gt;out_h0_0 -->
<g id="edge17" class="edge">
<title>out_h0_0-&gt;out_h0_0</title>
<path fill="none" stroke="#000000" d="M843.7229,-815.0752C854.7647,-814.8406 863.4355,-810.9694 863.4355,-803.4616 863.4355,-798.5346 859.7013,-795.1737 854.0134,-793.379"/>
<polygon fill="#000000" stroke="#000000" points="854.1292,-789.8578 843.7229,-791.8479 853.0989,-796.7816 854.1292,-789.8578"/>
<text text-anchor="middle" x="900.2387" y="-799.2616" font-family="Times,serif" font-size="14.00" fill="#000000"> (x = 0) &amp; b̅</text>
</g>
<!-- out_h0_1 -->
<g id="node11" class="node">
<title>out_h0_1</title>
<ellipse fill="none" stroke="#000000" cx="601" cy="-675.7906" rx="37.3711" ry="37.3711"/>
<text text-anchor="middle" x="601" y="-679.9906" font-family="Times,serif" font-size="14.00" fill="#000000">РВ</text>
<text text-anchor="middle" x="601" y="-663.1906" font-family="Times,serif" font-size="14.00" fill="#000000">r/2 y/1</text>
</g>
<!-- out_h0_0&#45;&gt;out_h0_1 -->
<g id="edge18" class="edge">
<title>out_h0_0-&gt;out_h0_1</title>
<path fill="none" stroke="#000000" d="M770.7146,-799.8352C712.5648,-793.3234 604.5239,-777.4969 581.3936,-748.0261 574.5139,-739.2605 574.4429,-728.2625 577.3912,-717.511"/>
<polygon fill="#000000" stroke="#000000" points="580.7991,-718.3724 580.8389,-707.7777 574.2008,-716.0352 580.7991,-718.3724"/>
<text text-anchor="middle" x="617.8032" y="-735.4261" font-family="Times,serif" font-size="14.00" fill="#000000"> (x = 1) &amp; b̅</text>
</g>
<!-- out_h0_2 -->
<g id="node12" class="node">
<title>out_h0_2</title>
<ellipse fill="none" stroke="#000000" cx="605" cy="-420.4485" rx="37.3711" ry="37.3711"/>
<text text-anchor="middle" x="605" y="-424.6485" font-family="Times,serif" font-size="14.00" fill="#000000">РВ</text>
<text text-anchor="middle" x="605" y="-407.8485" font-family="Times,serif" font-size="14.00" fill="#000000">r/2 y/1</text>
</g>
<!-- out_h0_0&#45;&gt;out_h0_2 -->
<g id="edge19" class="edge">
<title>out_h0_0-&gt;out_h0_2</title>
<path fill="none" stroke="#000000" d="M842.5543,-788.6551C871.5711,-774.1298 911.0793,-748.9456 929,-713.2261 943.922,-683.4834 937.6397,-670.4899 929,-638.3551 911.9716,-575.0191 903.0833,-555.2868 855,-510.684 797.9522,-457.7657 707.5838,-435.4099 652.5462,-426.3141"/>
<polygon fill="#000000" stroke="#000000" points="652.7852,-422.8089 642.3635,-424.7161 651.6999,-429.7243 652.7852,-422.8089"/>
<text text-anchor="middle" x="959.8032" y="-607.7551" font-family="Times,serif" font-size="14.00" fill="#000000"> (x = 2) &amp; b̅</text>
</g>
<!-- out_h0_3 -->
<g id="node13" class="node">
<title>out_h0_3</title>
<ellipse fill="none" stroke="#000000" cx="718" cy="-548.1196" rx="37.3711" ry="37.3711"/>
<text text-anchor="middle" x="718" y="-552.3196" font-family="Times,serif" font-size="14.00" fill="#000000">РВ</text>
<text text-anchor="middle" x="718" y="-535.5196" font-family="Times,serif" font-size="14.00" fill="#000000">r/2 y/0</text>
</g>
<!-- out_h0_0&#45;&gt;out_h0_3 -->
<g id="edge20" class="edge">
<title>out_h0_0-&gt;out_h0_3</title>
<path fill="none" stroke="#000000" d="M826.269,-770.5683C842.6289,-736.557 861.5492,-682.3657 844,-638.3551 829.911,-603.022 792.9562,-579.1944 762.6876,-564.9403"/>
<polygon fill="#000000" stroke="#000000" points="764.0965,-561.7363 753.5412,-560.8218 761.2224,-568.1191 764.0965,-561.7363"/>
<text text-anchor="middle" x="887.8032" y="-671.5906" font-family="Times,serif" font-size="14.00" fill="#000000"> (x = 3) &amp; b̅</text>
</g>
<!-- out_h1_0 -->
<g id="node14" class="node">
<title>out_h1_0</title>
<ellipse fill="none" stroke="#000000" cx="954" cy="-292.7775" rx="37.3711" ry="37.3711"/>
<text text-anchor="middle" x="954" y="-296.9775" font-family="Times,serif" font-size="14.00" fill="#000000">РВ</text>
<text text-anchor="middle" x="954" y="-280.1775" font-family="Times,serif" font-size="14.00" fill="#000000">r/2 y/3</text>
</g>
<!-- out_h0_0&#45;&gt;out_h1_0 -->
<g id="edge21" class="edge">
<title>out_h0_0-&gt;out_h1_0</title>
<path fill="none" stroke="#000000" d="M843.7043,-791.7649C867.9354,-782.5796 899.6829,-767.9915 923,-748.0261 947.4587,-727.0831 994.3921,-644.8653 1001,-620.3551 1002.9436,-613.1458 1004.6242,-610.0832 1001,-603.5551 993.6568,-590.3282 979.8575,-598.5489 972.1094,-585.5551 948.213,-545.4804 949.2474,-412.7749 951.7659,-340.5758"/>
<polygon fill="#000000" stroke="#000000" points="955.2709,-340.504 952.1455,-330.3807 948.2758,-340.2435 955.2709,-340.504"/>
<text text-anchor="middle" x="1001.9453" y="-543.9196" font-family="Times,serif" font-size="14.00" fill="#000000"> x ≠ 4 &amp; b</text>
</g>
<!-- out_h0_1&#45;&gt;shutdown -->
<g id="edge28" class="edge">
<title>out_h0_1-&gt;shutdown</title>
<path fill="none" stroke="#000000" d="M565.1283,-687.713C519.9061,-705.2752 448,-742.7462 448,-803.4616 448,-1441.8166 448,-1441.8166 448,-1441.8166 448,-1499.0192 861.3015,-1551.0584 1009.1695,-1567.8461"/>
<polygon fill="#000000" stroke="#000000" points="1009.0188,-1571.3512 1019.348,-1568.9935 1009.803,-1564.3952 1009.0188,-1571.3512"/>
<text text-anchor="middle" x="464.1973" y="-1118.4391" font-family="Times,serif" font-size="14.00" fill="#000000"> x = 4</text>
</g>
<!-- out_h0_1&#45;&gt;out_h0_0 -->
<g id="edge26" class="edge">
<title>out_h0_1-&gt;out_h0_0</title>
<path fill="none" stroke="#000000" d="M626.2806,-703.676C640.5448,-718.2461 659.2995,-735.5828 678.3936,-748.0261 704.5739,-765.0873 736.8814,-778.9202 762.6907,-788.5008"/>
<polygon fill="#000000" stroke="#000000" points="761.6437,-791.8441 772.2379,-791.9623 764.0297,-785.2633 761.6437,-791.8441"/>
<text text-anchor="middle" x="714.8032" y="-735.4261" font-family="Times,serif" font-size="14.00" fill="#000000"> (x = 3) &amp; b̅</text>
</g>
<!-- out_h0_1&#45;&gt;out_h0_1 -->
<g id="edge23" class="edge">
<title>out_h0_1-&gt;out_h0_1</title>
<path fill="none" stroke="#000000" d="M636.7229,-687.4042C647.7647,-687.1696 656.4355,-683.2984 656.4355,-675.7906 656.4355,-670.8636 652.7013,-667.5027 647.0134,-665.708"/>
<polygon fill="#000000" stroke="#000000" points="647.1292,-662.1868 636.7229,-664.1769 646.0989,-669.1106 647.1292,-662.1868"/>
<text text-anchor="middle" x="693.2387" y="-671.5906" font-family="Times,serif" font-size="14.00" fill="#000000"> (x = 0) &amp; b̅</text>
</g>
<!-- out_h0_1&#45;&gt;out_h0_2 -->
<g id="edge24" class="edge">
<title>out_h0_1-&gt;out_h0_2</title>
<path fill="none" stroke="#000000" d="M573.0778,-650.4458C557.2087,-636.3083 536.8082,-618.5747 518,-603.5551 507.4119,-595.0998 499.5255,-597.6381 493.3936,-585.5551 478.3348,-555.8814 479.0564,-540.713 493.3936,-510.684 507.7026,-480.7142 537.3651,-457.4914 562.5149,-442.1139"/>
<polygon fill="#000000" stroke="#000000" points="564.3501,-445.095 571.1899,-437.0038 560.7972,-439.0637 564.3501,-445.095"/>
<text text-anchor="middle" x="529.8032" y="-543.9196" font-family="Times,serif" font-size="14.00" fill="#000000"> (x = 1) &amp; b̅</text>
</g>
<!-- out_h0_1&#45;&gt;out_h0_3 -->
<g id="edge25" class="edge">
<title>out_h0_1-&gt;out_h0_3</title>
<path fill="none" stroke="#000000" d="M599.4554,-638.0419C600.7782,-625.8436 604.3363,-613.0358 612.3936,-603.5551 628.942,-584.083 644.2844,-597.2603 667,-585.5551 671.5217,-583.2251 676.0765,-580.5129 680.5044,-577.6331"/>
<polygon fill="#000000" stroke="#000000" points="682.5429,-580.4793 688.8211,-571.945 678.5911,-574.7014 682.5429,-580.4793"/>
<text text-anchor="middle" x="648.8032" y="-607.7551" font-family="Times,serif" font-size="14.00" fill="#000000"> (x = 2) &amp; b̅</text>
</g>
<!-- out_h0_1&#45;&gt;out_h1_0 -->
<g id="edge27" class="edge">
<title>out_h0_1-&gt;out_h1_0</title>
<path fill="none" stroke="#000000" d="M637.6479,-667.4812C700.7668,-652.4356 826.0226,-619.1167 855,-585.5551 887.9573,-547.3838 868.6275,-523.8792 884.1094,-475.884 899.6436,-427.7267 920.7145,-373.7299 935.6476,-336.9286"/>
<polygon fill="#000000" stroke="#000000" points="938.9609,-338.0725 939.4955,-327.4911 932.479,-335.4295 938.9609,-338.0725"/>
<text text-anchor="middle" x="913.9453" y="-480.084" font-family="Times,serif" font-size="14.00" fill="#000000"> x ≠ 4 &amp; b</text>
</g>
<!-- out_h0_2&#45;&gt;shutdown -->
<g id="edge34" class="edge">
<title>out_h0_2-&gt;shutdown</title>
<path fill="none" stroke="#000000" d="M568.2666,-428.2534C526.7483,-439.1393 460.5856,-463.1444 427,-510.684 383.3104,-572.5257 385,-600.0729 385,-675.7906 385,-1441.8166 385,-1441.8166 385,-1441.8166 385,-1526.3709 478.1941,-1496.9465 561,-1514.0521 722.7733,-1547.4704 918.1548,-1563.9377 1009.383,-1570.2702"/>
<polygon fill="#000000" stroke="#000000" points="1009.2437,-1573.7688 1019.4587,-1570.9576 1009.7202,-1566.785 1009.2437,-1573.7688"/>
<text text-anchor="middle" x="401.1973" y="-990.7681" font-family="Times,serif" font-size="14.00" fill="#000000"> x = 4</text>
</g>
<!-- out_h0_2&#45;&gt;out_h0_0 -->
<g id="edge31" class="edge">
<title>out_h0_2-&gt;out_h0_0</title>
<path fill="none" stroke="#000000" d="M569.5138,-433.6506C547.6819,-443.0327 520.1273,-457.2682 500,-475.884 449.0072,-523.0475 413.4483,-556.3347 440.3936,-620.3551 471.8832,-695.1723 499.8373,-708.9736 571,-748.0261 631.1776,-781.0502 710.4131,-794.4847 760.2892,-799.8935"/>
<polygon fill="#000000" stroke="#000000" points="760.166,-803.399 770.4691,-800.93 760.8751,-796.435 760.166,-803.399"/>
<text text-anchor="middle" x="476.8032" y="-607.7551" font-family="Times,serif" font-size="14.00" fill="#000000"> (x = 2) &amp; b̅</text>
</g>
<!-- out_h0_2&#45;&gt;out_h0_1 -->
<g id="edge32" class="edge">
<title>out_h0_2-&gt;out_h0_1</title>
<path fill="none" stroke="#000000" d="M601.6206,-458.1719C600.3334,-474.3285 599.0248,-493.417 598.3936,-510.684 596.6129,-559.3949 597.6966,-571.6291 599,-620.3551 599.0676,-622.8822 599.1424,-625.4739 599.2221,-628.0904"/>
<polygon fill="#000000" stroke="#000000" points="595.7282,-628.3393 599.5498,-638.2209 602.7246,-628.1129 595.7282,-628.3393"/>
<text text-anchor="middle" x="634.8032" y="-543.9196" font-family="Times,serif" font-size="14.00" fill="#000000"> (x = 3) &amp; b̅</text>
</g>
<!-- out_h0_2&#45;&gt;out_h0_2 -->
<g id="edge29" class="edge">
<title>out_h0_2-&gt;out_h0_2</title>
<path fill="none" stroke="#000000" d="M640.7229,-432.0622C651.7647,-431.8276 660.4355,-427.9564 660.4355,-420.4485 660.4355,-415.5215 656.7013,-412.1607 651.0134,-410.366"/>
<polygon fill="#000000" stroke="#000000" points="651.1292,-406.8448 640.7229,-408.8349 650.0989,-413.7685 651.1292,-406.8448"/>
<text text-anchor="middle" x="697.2387" y="-416.2485" font-family="Times,serif" font-size="14.00" fill="#000000"> (x = 0) &amp; b̅</text>
</g>
<!-- out_h0_2&#45;&gt;out_h0_3 -->
<g id="edge30" class="edge">
<title>out_h0_2-&gt;out_h0_3</title>
<path fill="none" stroke="#000000" d="M607.2625,-458.0928C609.6524,-470.2827 614.1366,-483.112 622.3936,-492.684 636.3574,-508.8719 648.3252,-500.278 667,-510.684 671.4434,-513.16 675.9483,-515.9654 680.3469,-518.8998"/>
<polygon fill="#000000" stroke="#000000" points="678.4198,-521.8227 688.6306,-524.6495 682.4112,-516.0722 678.4198,-521.8227"/>
<text text-anchor="middle" x="658.8032" y="-480.084" font-family="Times,serif" font-size="14.00" fill="#000000"> (x = 1) &amp; b̅</text>
</g>
<!-- out_h0_2&#45;&gt;out_h1_0 -->
<g id="edge33" class="edge">
<title>out_h0_2-&gt;out_h1_0</title>
<path fill="none" stroke="#000000" d="M636.1954,-399.7153C661.4339,-383.7284 698.3668,-362.0757 733.1094,-348.213 790.9781,-325.1228 861.3012,-309.4543 906.8191,-300.8195"/>
<polygon fill="#000000" stroke="#000000" points="907.5135,-304.2505 916.705,-298.9809 906.2335,-297.3685 907.5135,-304.2505"/>
<text text-anchor="middle" x="762.9453" y="-352.413" font-family="Times,serif" font-size="14.00" fill="#000000"> x ≠ 4 &amp; b</text>
</g>
<!-- out_h0_3&#45;&gt;shutdown -->
<g id="edge40" class="edge">
<title>out_h0_3-&gt;shutdown</title>
<path fill="none" stroke="#000000" d="M755.3363,-552.038C820.1871,-559.4514 950.2403,-577.1866 987,-603.5551 1070.6503,-663.559 1104,-700.5157 1104,-803.4616 1104,-1441.8166 1104,-1441.8166 1104,-1441.8166 1104,-1471.1134 1094.2617,-1502.3459 1084.0538,-1527.0368"/>
<polygon fill="#000000" stroke="#000000" points="1080.7181,-1525.9343 1079.9856,-1536.5038 1087.1495,-1528.6981 1080.7181,-1525.9343"/>
<text text-anchor="middle" x="1120.1973" y="-1054.6036" font-family="Times,serif" font-size="14.00" fill="#000000"> x = 4</text>
</g>
<!-- out_h0_3&#45;&gt;out_h0_0 -->
<g id="edge36" class="edge">
<title>out_h0_3-&gt;out_h0_0</title>
<path fill="none" stroke="#000000" d="M748.5813,-570.1856C758.6461,-579.2606 768.6275,-590.677 774,-603.5551 776.8748,-610.4461 775.4827,-613.0371 774,-620.3551 772.2753,-628.8671 768.1183,-629.8431 766.3936,-638.3551 759.7857,-670.9684 759.2612,-680.7234 766.3936,-713.2261 770.0375,-729.8313 777.0414,-747.0238 784.2785,-761.8907"/>
<polygon fill="#000000" stroke="#000000" points="781.1557,-763.4714 788.7868,-770.821 787.4046,-760.3167 781.1557,-763.4714"/>
<text text-anchor="middle" x="802.8032" y="-671.5906" font-family="Times,serif" font-size="14.00" fill="#000000"> (x = 1) &amp; b̅</text>
</g>
<!-- out_h0_3&#45;&gt;out_h0_1 -->
<g id="edge37" class="edge">
<title>out_h0_3-&gt;out_h0_1</title>
<path fill="none" stroke="#000000" d="M706.8853,-583.8915C701.8516,-596.3341 694.977,-609.8036 686,-620.3551 674.4659,-633.912 658.7969,-645.4026 644.0531,-654.3462"/>
<polygon fill="#000000" stroke="#000000" points="641.9279,-651.5329 635.0378,-659.5814 645.4431,-657.5863 641.9279,-651.5329"/>
<text text-anchor="middle" x="732.8032" y="-607.7551" font-family="Times,serif" font-size="14.00" fill="#000000"> (x = 2) &amp; b̅</text>
</g>
<!-- out_h0_3&#45;&gt;out_h0_2 -->
<g id="edge38" class="edge">
<title>out_h0_3-&gt;out_h0_2</title>
<path fill="none" stroke="#000000" d="M712.1007,-510.7664C708.8389,-498.7371 703.793,-485.9326 696,-475.884 683.8517,-460.2196 665.9295,-447.956 649.1955,-438.9908"/>
<polygon fill="#000000" stroke="#000000" points="650.5656,-435.761 640.0653,-434.3488 647.3931,-442.0009 650.5656,-435.761"/>
<text text-anchor="middle" x="741.8032" y="-480.084" font-family="Times,serif" font-size="14.00" fill="#000000"> (x = 3) &amp; b̅</text>
</g>
<!-- out_h0_3&#45;&gt;out_h0_3 -->
<g id="edge35" class="edge">
<title>out_h0_3-&gt;out_h0_3</title>
<path fill="none" stroke="#000000" d="M753.7229,-559.7332C764.7647,-559.4986 773.4355,-555.6274 773.4355,-548.1196 773.4355,-543.1926 769.7013,-539.8317 764.0134,-538.037"/>
<polygon fill="#000000" stroke="#000000" points="764.1292,-534.5158 753.7229,-536.5059 763.0989,-541.4396 764.1292,-534.5158"/>
<text text-anchor="middle" x="810.2387" y="-543.9196" font-family="Times,serif" font-size="14.00" fill="#000000"> (x = 0) &amp; b̅</text>
</g>
<!-- out_h0_3&#45;&gt;out_h1_0 -->
<g id="edge39" class="edge">
<title>out_h0_3-&gt;out_h1_0</title>
<path fill="none" stroke="#000000" d="M749.3258,-526.957C761.2209,-517.6199 774.0454,-505.7859 783,-492.684 812.1169,-450.082 789.7019,-423.9556 821.1094,-383.013 844.6197,-352.3652 881.5916,-328.4662 910.5758,-312.9848"/>
<polygon fill="#000000" stroke="#000000" points="912.4178,-315.9721 919.6784,-308.2563 909.1909,-309.7602 912.4178,-315.9721"/>
<text text-anchor="middle" x="850.9453" y="-416.2485" font-family="Times,serif" font-size="14.00" fill="#000000"> x ≠ 4 &amp; b</text>
</g>
<!-- out_h1_0&#45;&gt;shutdown -->
<g id="edge45" class="edge">
<title>out_h1_0-&gt;shutdown</title>
<path fill="none" stroke="#000000" d="M988.6471,-307.9011C1042.0591,-333.4539 1142.1902,-390.8405 1179,-475.884 1224.8371,-581.7837 1165,-879.5741 1165,-994.9681 1165,-1441.8166 1165,-1441.8166 1165,-1441.8166 1165,-1483.6206 1132.3183,-1519.9331 1103.5962,-1543.7741"/>
<polygon fill="#000000" stroke="#000000" points="1101.2422,-1541.1753 1095.6305,-1550.162 1105.6215,-1546.6363 1101.2422,-1541.1753"/>
<text text-anchor="middle" x="1188.1973" y="-926.9326" font-family="Times,serif" font-size="14.00" fill="#000000"> x = 4</text>
</g>
<!-- out_h1_0&#45;&gt;out_h0_0 -->
<g id="edge44" class="edge">
<title>out_h1_0-&gt;out_h0_0</title>
<path fill="none" stroke="#000000" d="M985.0925,-313.7466C1014.4477,-336.3088 1054,-375.1191 1054,-420.4485 1054,-675.7906 1054,-675.7906 1054,-675.7906 1054,-764.3042 926.9808,-791.5333 855.4859,-799.849"/>
<polygon fill="#000000" stroke="#000000" points="854.9279,-796.3889 845.3621,-800.9437 855.6804,-803.3483 854.9279,-796.3889"/>
<text text-anchor="middle" x="1087.4453" y="-543.9196" font-family="Times,serif" font-size="14.00" fill="#000000"> x ≠ 4 &amp; b̅</text>
</g>
<!-- out_h1_0&#45;&gt;out_h1_0 -->
<g id="edge41" class="edge">
<title>out_h1_0-&gt;out_h1_0</title>
<path fill="none" stroke="#000000" d="M989.7229,-304.3912C1000.7647,-304.1566 1009.4355,-300.2853 1009.4355,-292.7775 1009.4355,-287.8505 1005.7013,-284.4897 1000.0134,-282.695"/>
<polygon fill="#000000" stroke="#000000" points="1000.1292,-279.1738 989.7229,-281.1639 999.0989,-286.0975 1000.1292,-279.1738"/>
<text text-anchor="middle" x="1062.0853" y="-288.5775" font-family="Times,serif" font-size="14.00" fill="#000000"> (x = 0 | x = 3) &amp; b</text>
</g>
<!-- out_h1_1 -->
<g id="node15" class="node">
<title>out_h1_1</title>
<ellipse fill="none" stroke="#000000" cx="1054" cy="-37.4355" rx="37.3711" ry="37.3711"/>
<text text-anchor="middle" x="1054" y="-41.6355" font-family="Times,serif" font-size="14.00" fill="#000000">РВ</text>
<text text-anchor="middle" x="1054" y="-24.8355" font-family="Times,serif" font-size="14.00" fill="#000000">r/2 y/2</text>
</g>
<!-- out_h1_0&#45;&gt;out_h1_1 -->
<g id="edge42" class="edge">
<title>out_h1_0-&gt;out_h1_1</title>
<path fill="none" stroke="#000000" d="M941.4208,-257.3757C931.2642,-222.5882 921.6098,-168.8767 941.3936,-127.671 955.8944,-97.4689 985.9745,-74.1967 1011.3998,-58.8563"/>
<polygon fill="#000000" stroke="#000000" points="1013.2779,-61.813 1020.1658,-53.7626 1009.761,-55.7606 1013.2779,-61.813"/>
<text text-anchor="middle" x="974.3032" y="-160.9065" font-family="Times,serif" font-size="14.00" fill="#000000"> (x = 1) &amp; b</text>
</g>
<!-- out_h1_2 -->
<g id="node16" class="node">
<title>out_h1_2</title>
<ellipse fill="none" stroke="#000000" cx="1054" cy="-165.1065" rx="37.3711" ry="37.3711"/>
<text text-anchor="middle" x="1054" y="-169.3065" font-family="Times,serif" font-size="14.00" fill="#000000">РВ</text>
<text text-anchor="middle" x="1054" y="-152.5065" font-family="Times,serif" font-size="14.00" fill="#000000">r/2 y/2</text>
</g>
<!-- out_h1_0&#45;&gt;out_h1_2 -->
<g id="edge43" class="edge">
<title>out_h1_0-&gt;out_h1_2</title>
<path fill="none" stroke="#000000" d="M953.8526,-255.2363C955.4355,-243.1932 959.0044,-230.4281 966.3936,-220.542 977.2477,-206.0202 987.4975,-211.9425 1003,-202.542 1007.3495,-199.9045 1011.7944,-196.9962 1016.1579,-194.0012"/>
<polygon fill="#000000" stroke="#000000" points="1018.2495,-196.809 1024.4021,-188.1836 1014.2135,-191.0896 1018.2495,-196.809"/>
<text text-anchor="middle" x="999.3032" y="-224.742" font-family="Times,serif" font-size="14.00" fill="#000000"> (x = 2) &amp; b</text>
</g>
<!-- out_h1_1&#45;&gt;shutdown -->
<g id="edge50" class="edge">
<title>out_h1_1-&gt;shutdown</title>
<path fill="none" stroke="#000000" d="M1090.8554,-45.441C1169.1594,-63.5149 1345,-110.2131 1345,-165.1065 1345,-1441.8166 1345,-1441.8166 1345,-1441.8166 1345,-1492.6968 1193.07,-1539.5875 1111.4571,-1561.1055"/>
<polygon fill="#000000" stroke="#000000" points="1110.1849,-1557.8199 1101.3887,-1563.7256 1111.9478,-1564.5943 1110.1849,-1557.8199"/>
<text text-anchor="middle" x="1361.1973" y="-799.2616" font-family="Times,serif" font-size="14.00" fill="#000000"> x = 4</text>
</g>
<!-- out_h1_1&#45;&gt;out_h0_0 -->
<g id="edge49" class="edge">
<title>out_h1_1-&gt;out_h0_0</title>
<path fill="none" stroke="#000000" d="M1016.5263,-40.2856C871.7522,-51.7885 357,-97.4454 357,-165.1065 357,-484.284 357,-484.284 357,-484.284 357,-593.2939 367.7129,-636.3505 445,-713.2261 489.3983,-757.3879 672.9284,-786.2242 760.7544,-797.7616"/>
<polygon fill="#000000" stroke="#000000" points="760.3555,-801.2391 770.7219,-799.0506 761.2533,-794.2969 760.3555,-801.2391"/>
<text text-anchor="middle" x="390.4453" y="-416.2485" font-family="Times,serif" font-size="14.00" fill="#000000"> x ≠ 4 &amp; b̅</text>
</g>
<!-- out_h1_1&#45;&gt;out_h1_0 -->
<g id="edge48" class="edge">
<title>out_h1_1-&gt;out_h1_0</title>
<path fill="none" stroke="#000000" d="M1090.7178,-45.2984C1131.2189,-56.1489 1194.4334,-80.0346 1223,-127.671 1240.1136,-156.209 1242.4311,-175.5286 1223,-202.542 1196.6808,-239.1313 1070.5304,-269.5198 1000.7254,-283.8756"/>
<polygon fill="#000000" stroke="#000000" points="999.9593,-280.4596 990.8537,-285.8761 1001.3497,-287.3201 999.9593,-280.4596"/>
<text text-anchor="middle" x="1269.3032" y="-160.9065" font-family="Times,serif" font-size="14.00" fill="#000000"> (x = 2) &amp; b</text>
</g>
<!-- out_h1_1&#45;&gt;out_h1_1 -->
<g id="edge46" class="edge">
<title>out_h1_1-&gt;out_h1_1</title>
<path fill="none" stroke="#000000" d="M1089.7229,-49.0492C1100.7647,-48.8145 1109.4355,-44.9433 1109.4355,-37.4355 1109.4355,-32.5085 1105.7013,-29.1477 1100.0134,-27.353"/>
<polygon fill="#000000" stroke="#000000" points="1100.1292,-23.8317 1089.7229,-25.8219 1099.0989,-30.7555 1100.1292,-23.8317"/>
<text text-anchor="middle" x="1162.0853" y="-33.2355" font-family="Times,serif" font-size="14.00" fill="#000000"> (x = 0 | x = 3) &amp; b</text>
</g>
<!-- out_h1_1&#45;&gt;out_h1_2 -->
<g id="edge47" class="edge">
<title>out_h1_1-&gt;out_h1_2</title>
<path fill="none" stroke="#000000" d="M1070.5247,-71.3749C1073.2096,-78.3317 1075.575,-85.7178 1077,-92.871 1078.9275,-102.5467 1077.7542,-112.7495 1075.1307,-122.3412"/>
<polygon fill="#000000" stroke="#000000" points="1071.7314,-121.4751 1071.9409,-132.0678 1078.3829,-123.6564 1071.7314,-121.4751"/>
<text text-anchor="middle" x="1110.3032" y="-97.071" font-family="Times,serif" font-size="14.00" fill="#000000"> (x = 1) &amp; b</text>
</g>
<!-- out_h1_2&#45;&gt;shutdown -->
<g id="edge55" class="edge">
<title>out_h1_2-&gt;shutdown</title>
<path fill="none" stroke="#000000" d="M1090.2647,-174.5495C1140.4602,-190.0626 1225,-226.0891 1225,-292.7775 1225,-1441.8166 1225,-1441.8166 1225,-1441.8166 1225,-1501.3791 1158.4106,-1538.4971 1110.0943,-1557.5898"/>
<polygon fill="#000000" stroke="#000000" points="1108.7983,-1554.3381 1100.6998,-1561.1693 1111.2907,-1560.8794 1108.7983,-1554.3381"/>
<text text-anchor="middle" x="1241.1973" y="-863.0971" font-family="Times,serif" font-size="14.00" fill="#000000"> x = 4</text>
</g>
<!-- out_h1_2&#45;&gt;out_h0_0 -->
<g id="edge54" class="edge">
<title>out_h1_2-&gt;out_h0_0</title>
<path fill="none" stroke="#000000" d="M1083.8595,-188.3315C1093.965,-197.4531 1104.5619,-208.6007 1112,-220.542 1120.5761,-234.3104 1120.4639,-239.3206 1123,-255.342 1154.7689,-456.0354 1135.1733,-540.6649 1125,-585.5551 1114.5069,-631.8566 1078.7301,-721.3278 1039,-748.0261 1009.2906,-767.9905 913.6701,-786.3674 855.1777,-796.1312"/>
<polygon fill="#000000" stroke="#000000" points="854.3646,-792.7178 845.0656,-797.7952 855.5013,-799.6249 854.3646,-792.7178"/>
<text text-anchor="middle" x="1172.4453" y="-480.084" font-family="Times,serif" font-size="14.00" fill="#000000"> x ≠ 4 &amp; b̅</text>
</g>
<!-- out_h1_2&#45;&gt;out_h1_0 -->
<g id="edge52" class="edge">
<title>out_h1_2-&gt;out_h1_0</title>
<path fill="none" stroke="#000000" d="M1048.2894,-202.1645C1045.1701,-214.1721 1040.3702,-227.0383 1033,-237.342 1023.4844,-250.645 1009.7389,-261.8631 996.373,-270.6521"/>
<polygon fill="#000000" stroke="#000000" points="994.3197,-267.808 987.6928,-276.0745 998.0283,-273.7448 994.3197,-267.808"/>
<text text-anchor="middle" x="1074.3032" y="-224.742" font-family="Times,serif" font-size="14.00" fill="#000000"> (x = 1) &amp; b</text>
</g>
<!-- out_h1_2&#45;&gt;out_h1_1 -->
<g id="edge53" class="edge">
<title>out_h1_2-&gt;out_h1_1</title>
<path fill="none" stroke="#000000" d="M1025.9124,-140.0385C1018.0551,-131.2977 1010.5361,-120.8532 1006.3936,-109.671 1001.0008,-95.1138 1007.723,-80.5362 1017.6566,-68.3277"/>
<polygon fill="#000000" stroke="#000000" points="1020.4611,-70.4438 1024.5531,-60.6711 1015.2598,-65.759 1020.4611,-70.4438"/>
<text text-anchor="middle" x="1039.3032" y="-97.071" font-family="Times,serif" font-size="14.00" fill="#000000"> (x = 2) &amp; b</text>
</g>
<!-- out_h1_2&#45;&gt;out_h1_2 -->
<g id="edge51" class="edge">
<title>out_h1_2-&gt;out_h1_2</title>
<path fill="none" stroke="#000000" d="M1089.7229,-176.7202C1100.7647,-176.4855 1109.4355,-172.6143 1109.4355,-165.1065 1109.4355,-160.1795 1105.7013,-156.8187 1100.0134,-155.024"/>
<polygon fill="#000000" stroke="#000000" points="1100.1292,-151.5027 1089.7229,-153.4929 1099.0989,-158.4265 1100.1292,-151.5027"/>
<text text-anchor="middle" x="1162.0853" y="-160.9065" font-family="Times,serif" font-size="14.00" fill="#000000"> (x = 0 | x = 3) &amp; b</text>
</g>
</g>
</svg>